<svg width="28" height="28" viewBox="0 0 28 28" fill="none" xmlns="http://www.w3.org/2000/svg">
<g id="Check">
<mask id="mask0_2_5" style="mask-type:alpha" maskUnits="userSpaceOnUse" x="0" y="0" width="28" height="28">
<rect id="Bounding box" width="28" height="28" fill="#D9D9D9"/>
</mask>
<g mask="url(#mask0_2_5)">
<path id="check_box" d="M12.3667 15.6333L9.85833 13.125C9.64444 12.9111 9.37222 12.8042 9.04167 12.8042C8.71111 12.8042 8.43889 12.9111 8.225 13.125C8.01111 13.3389 7.90417 13.6111 7.90417 13.9417C7.90417 14.2722 8.01111 14.5444 8.225 14.7583L11.55 18.0833C11.7833 18.3167 12.0556 18.4333 12.3667 18.4333C12.6778 18.4333 12.95 18.3167 13.1833 18.0833L19.775 11.4917C19.9889 11.2778 20.0958 11.0056 20.0958 10.675C20.0958 10.3444 19.9889 10.0722 19.775 9.85833C19.5611 9.64444 19.2889 9.5375 18.9583 9.5375C18.6278 9.5375 18.3556 9.64444 18.1417 9.85833L12.3667 15.6333ZM5.83333 24.5C5.19167 24.5 4.64236 24.2715 4.18542 23.8146C3.72847 23.3576 3.5 22.8083 3.5 22.1667V5.83333C3.5 5.19167 3.72847 4.64236 4.18542 4.18542C4.64236 3.72847 5.19167 3.5 5.83333 3.5H22.1667C22.8083 3.5 23.3576 3.72847 23.8146 4.18542C24.2715 4.64236 24.5 5.19167 24.5 5.83333V22.1667C24.5 22.8083 24.2715 23.3576 23.8146 23.8146C23.3576 24.2715 22.8083 24.5 22.1667 24.5H5.83333Z" fill="#101318"/>
</g>
</g>
</svg>
